<?xml version="1.0" encoding="utf-8"?>
<!-- Generator: Adobe Illustrator 24.2.1, SVG Export Plug-In . SVG Version: 6.00 Build 0)  -->
<svg version="1.1" id="Layer_1" xmlns="http://www.w3.org/2000/svg" xmlns:xlink="http://www.w3.org/1999/xlink" x="0px" y="0px"
	 width="240px" height="240px" viewBox="0 0 240 240" style="enable-background:new 0 0 240 240;" xml:space="preserve">
<style type="text/css">
	.st0{fill:#1880B6;}
	.st1{fill:#8ED9EF;}
	.st2{fill:#F2F0DA;}
	.st3{fill:#324249;}
</style>
<path class="st0" d="M0,0h240v240H0V0z"/>
<g>
	<g>
		<path class="st1" d="M180,114.2l-22.4-22.4c-3.1-3.1-8.2-3.1-11.3,0L112,126.2l-14.3-14.3c-3.1-3.1-8.2-3.1-11.3,0L60,138.2V57.5
			c0-2.2,1.8-4,4-4h112c2.2,0,4,1.8,4,4V114.2z"/>
		<circle class="st2" cx="102" cy="79.5" r="6"/>
		<path class="st2" d="M176,149.5c2.2,0,4-1.8,4-4v-25.7l-25.2-25.2c-1.6-1.6-4.1-1.6-5.7,0l-41.7,41.8c-0.8,0.8-2,0.8-2.8,0
			s-0.8-2,0-2.8l4.6-4.6c-1.9-1.9-14.3-14.3-14.3-14.3c-1.6-1.6-4.1-1.6-5.7,0L60,143.9v1.6c0,2.2,1.8,4,4,4H176z"/>
		<g>
			<path class="st3" d="M176,49.5H64c-4.4,0-8,3.6-8,8v88c0,4.4,3.6,8,8,8h112c4.4,0,8-3.6,8-8v-88C184,53.1,180.4,49.5,176,49.5z
				 M180,145.5c0,2.2-1.8,4-4,4H64c-2.2,0-4-1.8-4-4v-1.6l29.2-29.2c1.6-1.6,4.1-1.6,5.7,0c0,0,12.4,12.4,14.3,14.3l-4.6,4.6
				c-0.8,0.8-0.8,2,0,2.8s2,0.8,2.8,0l41.7-41.8c1.6-1.6,4.1-1.6,5.7,0l25.2,25.2L180,145.5z M180,114.2l-22.4-22.4
				c-3.1-3.1-8.2-3.1-11.3,0L112,126.2l-14.3-14.3c-3.1-3.1-8.2-3.1-11.3,0L60,138.2V57.5c0-2.2,1.8-4,4-4h112c2.2,0,4,1.8,4,4
				V114.2z"/>
			<path class="st3" d="M118,77.5h-6.2c-0.3-1.3-0.8-2.5-1.5-3.5l4.4-4.4c0.8-0.8,0.8-2,0-2.8s-2-0.8-2.8,0l-4.4,4.4
				c-1.1-0.7-2.2-1.2-3.5-1.5v-6.2c0-1.1-0.9-2-2-2s-2,0.9-2,2v6.2c-1.3,0.3-2.5,0.8-3.5,1.5l-4.4-4.4c-0.8-0.8-2-0.8-2.8,0
				s-0.8,2.1,0,2.8l4.4,4.4c-0.7,1.1-1.2,2.2-1.5,3.5H86c-1.1,0-2,0.9-2,2s0.9,2,2,2h6.2c0.3,1.3,0.8,2.5,1.5,3.5l-4.4,4.4
				c-0.8,0.8-0.8,2,0,2.8s2.1,0.8,2.8,0l4.4-4.4c1.1,0.7,2.2,1.2,3.5,1.5v6.2c0,1.1,0.9,2,2,2s2-0.9,2-2v-6.2
				c1.3-0.3,2.5-0.8,3.5-1.5l4.4,4.4c0.8,0.8,2,0.8,2.8,0s0.8-2.1,0-2.8l-4.4-4.4c0.7-1.1,1.2-2.2,1.5-3.5h6.2c1.1,0,2-0.9,2-2
				S119.1,77.5,118,77.5z M102,85.5c-3.3,0-6-2.7-6-6s2.7-6,6-6s6,2.7,6,6S105.3,85.5,102,85.5z"/>
		</g>
	</g>
	<g>
		<path class="st2" d="M74.3,171.7l-5.1,13.8h-3.1l-3.6-9.5l-3.6,9.5h-3.1l-5.1-13.8h3l3.6,10.2l3.8-10.2H64l3.7,10.2l3.7-10.2H74.3
			z"/>
		<path class="st2" d="M81.3,163.7h2.9L75.6,188h-2.9L81.3,163.7z"/>
		<path class="st2" d="M94.8,184.7c-1.1-0.6-2-1.4-2.7-2.5c-0.6-1.1-1-2.3-1-3.6c0-1.4,0.3-2.6,1-3.6s1.5-1.9,2.6-2.5
			s2.4-0.9,3.9-0.9c1.4,0,2.5,0.3,3.6,0.8s1.8,1.3,2.3,2.4l-2.5,1.4c-0.4-0.6-0.9-1.1-1.5-1.4s-1.2-0.5-1.9-0.5
			c-1.2,0-2.2,0.4-3,1.2c-0.8,0.8-1.2,1.8-1.2,3.1c0,1.3,0.4,2.4,1.2,3.1c0.8,0.8,1.8,1.2,3,1.2c0.7,0,1.4-0.2,1.9-0.5
			c0.6-0.3,1.1-0.8,1.5-1.4l2.5,1.4c-0.5,1-1.3,1.8-2.3,2.4c-1,0.6-2.2,0.8-3.5,0.8C97.2,185.6,95.9,185.3,94.8,184.7z"/>
		<path class="st2" d="M117.2,173c1.1,1,1.6,2.4,1.6,4.4v8.1h-3v-1.7c-0.4,0.6-1,1.1-1.7,1.4c-0.7,0.3-1.6,0.5-2.6,0.5
			s-1.9-0.2-2.7-0.5c-0.8-0.4-1.4-0.8-1.8-1.5c-0.4-0.6-0.6-1.3-0.6-2.1c0-1.2,0.5-2.2,1.4-3s2.4-1.1,4.3-1.1h3.6v-0.2
			c0-1-0.3-1.7-0.9-2.2c-0.6-0.5-1.4-0.8-2.6-0.8c-0.8,0-1.5,0.1-2.3,0.4c-0.7,0.2-1.4,0.6-1.9,1l-1.3-2.3c0.7-0.5,1.6-1,2.6-1.3
			c1-0.3,2.1-0.4,3.2-0.4C114.6,171.5,116.1,172,117.2,173z M114.3,182.7c0.6-0.4,1.1-0.9,1.3-1.6v-1.6h-3.3c-1.9,0-2.8,0.6-2.8,1.8
			c0,0.6,0.2,1,0.7,1.4s1.1,0.5,1.9,0.5C112.9,183.3,113.6,183.1,114.3,182.7z"/>
		<path class="st2" d="M134.2,172.4c1.1,0.6,1.9,1.4,2.5,2.5c0.6,1.1,0.9,2.3,0.9,3.7c0,1.4-0.3,2.6-0.9,3.7
			c-0.6,1.1-1.4,1.9-2.5,2.5c-1.1,0.6-2.3,0.9-3.6,0.9c-1.9,0-3.3-0.6-4.4-1.9v6.7H123v-18.8h3.1v1.8c0.5-0.7,1.2-1.1,2-1.5
			c0.8-0.3,1.6-0.5,2.6-0.5C131.9,171.5,133.1,171.8,134.2,172.4z M133.1,181.7c0.8-0.8,1.1-1.8,1.1-3.1c0-1.3-0.4-2.3-1.1-3.1
			c-0.8-0.8-1.7-1.2-2.9-1.2c-0.8,0-1.5,0.2-2.1,0.5c-0.6,0.4-1.1,0.9-1.5,1.5c-0.4,0.7-0.5,1.4-0.5,2.3s0.2,1.6,0.5,2.3
			c0.4,0.7,0.9,1.2,1.5,1.5c0.6,0.4,1.3,0.5,2.1,0.5C131.4,182.9,132.4,182.5,133.1,181.7z"/>
		<path class="st2" d="M148.9,184.7c-0.4,0.3-0.8,0.5-1.4,0.7c-0.5,0.2-1.1,0.2-1.7,0.2c-1.5,0-2.7-0.4-3.5-1.2
			c-0.8-0.8-1.2-1.9-1.2-3.5v-6.6h-2.3v-2.6h2.3v-3.1h3.2v3.1h3.7v2.6h-3.7v6.5c0,0.7,0.2,1.2,0.5,1.5c0.3,0.4,0.8,0.5,1.4,0.5
			c0.7,0,1.3-0.2,1.8-0.6L148.9,184.7z"/>
		<path class="st2" d="M151.7,168.9c-0.4-0.4-0.6-0.8-0.6-1.4s0.2-1,0.6-1.4c0.4-0.4,0.9-0.6,1.5-0.6s1.1,0.2,1.5,0.5
			s0.6,0.8,0.6,1.3c0,0.6-0.2,1-0.6,1.4s-0.9,0.6-1.5,0.6C152.6,169.4,152.1,169.2,151.7,168.9z M151.6,171.7h3.2v13.8h-3.2V171.7z"
			/>
		<path class="st2" d="M161.4,184.7c-1.1-0.6-2-1.4-2.6-2.5c-0.6-1.1-0.9-2.3-0.9-3.6c0-1.4,0.3-2.6,0.9-3.6
			c0.6-1.1,1.5-1.9,2.6-2.5c1.1-0.6,2.4-0.9,3.8-0.9c1.4,0,2.7,0.3,3.8,0.9s2,1.4,2.6,2.5c0.6,1.1,0.9,2.3,0.9,3.6
			c0,1.4-0.3,2.6-0.9,3.6c-0.6,1.1-1.5,1.9-2.6,2.5s-2.4,0.9-3.8,0.9C163.8,185.6,162.6,185.3,161.4,184.7z M168.1,181.7
			c0.8-0.8,1.2-1.8,1.2-3.1c0-1.3-0.4-2.3-1.2-3.1c-0.8-0.8-1.8-1.2-2.9-1.2c-1.2,0-2.2,0.4-2.9,1.2c-0.8,0.8-1.1,1.8-1.1,3.1
			c0,1.3,0.4,2.3,1.1,3.1c0.8,0.8,1.7,1.2,2.9,1.2C166.4,182.9,167.4,182.5,168.1,181.7z"/>
		<path class="st2" d="M187.6,173.1c1,1,1.6,2.5,1.6,4.5v7.9H186V178c0-1.2-0.3-2.1-0.9-2.7s-1.4-0.9-2.4-0.9
			c-1.2,0-2.1,0.4-2.8,1.1c-0.7,0.7-1,1.7-1,3.1v7h-3.2v-13.8h3.1v1.8c0.5-0.6,1.2-1.1,2-1.4c0.8-0.3,1.7-0.5,2.7-0.5
			C185.2,171.5,186.6,172,187.6,173.1z"/>
	</g>
</g>
</svg>
